<svg width="41" height="40" viewBox="0 0 41 40" fill="none" xmlns="http://www.w3.org/2000/svg">
<circle cx="20" cy="20" r="18.5" fill="white" stroke="#562E91" stroke-width="3" stroke-linejoin="round"/>
<path d="M19.5065 19.6786C21.9674 19.6786 24.0065 17.6747 24.0065 15.1786C24.0065 12.7177 21.9674 10.6786 19.5065 10.6786C17.0104 10.6786 15.0065 12.7177 15.0065 15.1786C15.0065 17.6747 17.0104 19.6786 19.5065 19.6786ZM22.6354 20.8036H22.0377C21.2643 21.1903 20.4205 21.3661 19.5065 21.3661C18.5924 21.3661 17.7135 21.1903 16.9401 20.8036H16.3424C13.7408 20.8036 11.6315 22.9481 11.6315 25.5497V26.9911C11.6315 27.9403 12.3698 28.6786 13.319 28.6786H25.694C26.608 28.6786 27.3815 27.9403 27.3815 26.9911V25.5497C27.3815 22.9481 25.2369 20.8036 22.6354 20.8036Z" fill="#E29368"/>
</svg>
