<svg width="21" height="22" viewBox="0 0 21 22" fill="none" xmlns="http://www.w3.org/2000/svg">
<path d="M18.75 0.5H2.25C0.984375 0.5 0 1.53125 0 2.75V19.25C0 20.5156 0.984375 21.5 2.25 21.5H18.75C19.9688 21.5 21 20.5156 21 19.25V2.75C21 1.53125 19.9688 0.5 18.75 0.5ZM11.3906 16.9062C11.3906 18.9219 10.2188 19.8594 8.4375 19.8594C6.89062 19.8594 5.95312 19.0625 5.48438 18.0781L7.125 17.0938C7.40625 17.6562 7.6875 18.125 8.39062 18.125C9 18.125 9.42188 17.8438 9.42188 16.8594V10.1562H11.3906V16.9062ZM16.0781 19.8594C14.25 19.8594 13.0781 19.0156 12.4688 17.8438L14.1094 16.9531C14.5312 17.6094 15.0469 18.125 16.0312 18.125C16.8281 18.125 17.3906 17.7031 17.3906 17.1406C17.3906 16.4844 16.8281 16.25 15.9375 15.8281L15.4219 15.6406C14.0156 15.0312 13.0781 14.2812 13.0781 12.6406C13.0781 11.1875 14.2031 10.0625 15.9844 10.0625C17.2031 10.0625 18.1406 10.4844 18.75 11.6094L17.25 12.5938C16.875 12.0312 16.5469 11.75 15.9375 11.75C15.375 11.75 15 12.125 15 12.5938C15 13.2031 15.375 13.4375 16.2188 13.8125L16.7344 14.0469C18.4219 14.75 19.3594 15.5 19.3594 17.1406C19.3594 18.9219 17.9531 19.8594 16.0781 19.8594Z" fill="#FFD749"/>
</svg>
