<svg width="120" height="120" viewBox="0 0 120 120" fill="none" xmlns="http://www.w3.org/2000/svg">
<rect x="5.5" y="5.5" width="109" height="109" stroke="url(#paint0_linear)" stroke-width="11"/>
<path d="M32.6434 50.3C31.2834 50.3 30.0834 50.05 29.0434 49.55C28.0234 49.03 27.2334 48.29 26.6734 47.33C26.1334 46.35 25.8634 45.21 25.8634 43.91V39.59C25.8634 38.27 26.1334 37.13 26.6734 36.17C27.2334 35.21 28.0234 34.48 29.0434 33.98C30.0834 33.46 31.2834 33.2 32.6434 33.2C34.6234 33.2 36.2134 33.72 37.4134 34.76C38.6134 35.8 39.2434 37.22 39.3034 39.02H36.0634C36.0034 38.08 35.6734 37.35 35.0734 36.83C34.4734 36.31 33.6634 36.05 32.6434 36.05C31.5434 36.05 30.6734 36.36 30.0334 36.98C29.3934 37.58 29.0734 38.44 29.0734 39.56V43.91C29.0734 45.03 29.3934 45.9 30.0334 46.52C30.6734 47.14 31.5434 47.45 32.6434 47.45C33.6634 47.45 34.4734 47.19 35.0734 46.67C35.6734 46.15 36.0034 45.42 36.0634 44.48H39.3034C39.2434 46.28 38.6134 47.7 37.4134 48.74C36.2134 49.78 34.6234 50.3 32.6434 50.3ZM50.5117 50.27C49.1517 50.27 47.9717 50.01 46.9717 49.49C45.9717 48.97 45.2017 48.23 44.6617 47.27C44.1217 46.31 43.8517 45.18 43.8517 43.88V39.62C43.8517 38.3 44.1217 37.17 44.6617 36.23C45.2017 35.27 45.9717 34.53 46.9717 34.01C47.9717 33.49 49.1517 33.23 50.5117 33.23C51.8717 33.23 53.0517 33.49 54.0517 34.01C55.0517 34.53 55.8217 35.27 56.3617 36.23C56.9017 37.17 57.1717 38.3 57.1717 39.62V43.88C57.1717 45.18 56.9017 46.31 56.3617 47.27C55.8217 48.23 55.0517 48.97 54.0517 49.49C53.0517 50.01 51.8717 50.27 50.5117 50.27ZM50.5117 47.42C51.6117 47.42 52.4617 47.12 53.0617 46.52C53.6617 45.9 53.9617 45.02 53.9617 43.88V39.62C53.9617 38.46 53.6617 37.58 53.0617 36.98C52.4617 36.38 51.6117 36.08 50.5117 36.08C49.4317 36.08 48.5817 36.38 47.9617 36.98C47.3617 37.58 47.0617 38.46 47.0617 39.62V43.88C47.0617 45.02 47.3617 45.9 47.9617 46.52C48.5817 47.12 49.4317 47.42 50.5117 47.42ZM67.33 50.3C65.67 50.3 64.34 49.74 63.34 48.62C62.34 47.5 61.84 45.99 61.84 44.09V39.44C61.84 37.52 62.34 36 63.34 34.88C64.34 33.76 65.67 33.2 67.33 33.2C68.69 33.2 69.77 33.58 70.57 34.34C71.37 35.08 71.77 36.1 71.77 37.4L71.08 36.65H71.83L71.74 32.81V28.1H74.98V50H71.77V46.85H71.08L71.77 46.1C71.77 47.4 71.37 48.43 70.57 49.19C69.77 49.93 68.69 50.3 67.33 50.3ZM68.44 47.48C69.46 47.48 70.26 47.17 70.84 46.55C71.44 45.91 71.74 45.03 71.74 43.91V39.59C71.74 38.47 71.44 37.6 70.84 36.98C70.26 36.34 69.46 36.02 68.44 36.02C67.38 36.02 66.55 36.33 65.95 36.95C65.35 37.55 65.05 38.43 65.05 39.59V43.91C65.05 45.07 65.35 45.96 65.95 46.58C66.55 47.18 67.38 47.48 68.44 47.48ZM86.4883 50.3C85.1483 50.3 83.9683 50.04 82.9483 49.52C81.9483 48.98 81.1783 48.23 80.6383 47.27C80.0983 46.31 79.8283 45.19 79.8283 43.91V39.59C79.8283 38.29 80.0983 37.17 80.6383 36.23C81.1783 35.27 81.9483 34.53 82.9483 34.01C83.9683 33.47 85.1483 33.2 86.4883 33.2C87.8483 33.2 89.0283 33.47 90.0283 34.01C91.0283 34.53 91.7983 35.27 92.3383 36.23C92.8783 37.17 93.1483 38.29 93.1483 39.59V42.53H82.9483V43.91C82.9483 45.13 83.2483 46.06 83.8483 46.7C84.4683 47.34 85.3583 47.66 86.5183 47.66C87.4583 47.66 88.2183 47.5 88.7983 47.18C89.3783 46.84 89.7383 46.35 89.8783 45.71H93.0883C92.8483 47.11 92.1283 48.23 90.9283 49.07C89.7283 49.89 88.2483 50.3 86.4883 50.3ZM90.0283 40.58V39.56C90.0283 38.36 89.7283 37.43 89.1283 36.77C88.5283 36.11 87.6483 35.78 86.4883 35.78C85.3483 35.78 84.4683 36.11 83.8483 36.77C83.2483 37.43 82.9483 38.37 82.9483 39.59V40.34L90.2683 40.31L90.0283 40.58ZM33.6934 90.3C32.3334 90.3 31.2534 89.93 30.4534 89.19C29.6534 88.43 29.2534 87.4 29.2534 86.1L29.9434 86.85H29.2534V90H26.0434V68.1H29.2834V72.81L29.1934 76.65H29.9434L29.2534 77.4C29.2534 76.1 29.6534 75.08 30.4534 74.34C31.2734 73.58 32.3534 73.2 33.6934 73.2C35.3534 73.2 36.6834 73.76 37.6834 74.88C38.6834 76 39.1834 77.52 39.1834 79.44V84.09C39.1834 85.99 38.6834 87.5 37.6834 88.62C36.6834 89.74 35.3534 90.3 33.6934 90.3ZM32.5834 87.48C33.6434 87.48 34.4734 87.18 35.0734 86.58C35.6734 85.96 35.9734 85.07 35.9734 83.91V79.59C35.9734 78.43 35.6734 77.55 35.0734 76.95C34.4734 76.33 33.6434 76.02 32.5834 76.02C31.5634 76.02 30.7534 76.34 30.1534 76.98C29.5734 77.6 29.2834 78.47 29.2834 79.59V83.91C29.2834 85.03 29.5734 85.91 30.1534 86.55C30.7534 87.17 31.5634 87.48 32.5834 87.48ZM52.8817 90C51.8617 90 50.9717 89.8 50.2117 89.4C49.4517 88.98 48.8517 88.39 48.4117 87.63C47.9917 86.87 47.7817 85.99 47.7817 84.99V71.04H42.3817V68.1H51.0217V84.99C51.0217 85.63 51.2017 86.14 51.5617 86.52C51.9217 86.88 52.4117 87.06 53.0317 87.06H58.1317V90H52.8817ZM68.47 90.3C66.49 90.3 64.91 89.73 63.73 88.59C62.55 87.43 61.96 85.86 61.96 83.88V73.5H65.2V83.88C65.2 85.02 65.49 85.91 66.07 86.55C66.65 87.17 67.45 87.48 68.47 87.48C69.51 87.48 70.32 87.17 70.9 86.55C71.5 85.91 71.8 85.02 71.8 83.88V73.5H75.04V83.88C75.04 85.86 74.44 87.43 73.24 88.59C72.06 89.73 70.47 90.3 68.47 90.3ZM86.4883 90.3C85.1483 90.3 83.9683 90.04 82.9483 89.52C81.9483 88.98 81.1783 88.23 80.6383 87.27C80.0983 86.31 79.8283 85.19 79.8283 83.91V79.59C79.8283 78.29 80.0983 77.17 80.6383 76.23C81.1783 75.27 81.9483 74.53 82.9483 74.01C83.9683 73.47 85.1483 73.2 86.4883 73.2C87.8483 73.2 89.0283 73.47 90.0283 74.01C91.0283 74.53 91.7983 75.27 92.3383 76.23C92.8783 77.17 93.1483 78.29 93.1483 79.59V82.53H82.9483V83.91C82.9483 85.13 83.2483 86.06 83.8483 86.7C84.4683 87.34 85.3583 87.66 86.5183 87.66C87.4583 87.66 88.2183 87.5 88.7983 87.18C89.3783 86.84 89.7383 86.35 89.8783 85.71H93.0883C92.8483 87.11 92.1283 88.23 90.9283 89.07C89.7283 89.89 88.2483 90.3 86.4883 90.3ZM90.0283 80.58V79.56C90.0283 78.36 89.7283 77.43 89.1283 76.77C88.5283 76.11 87.6483 75.78 86.4883 75.78C85.3483 75.78 84.4683 76.11 83.8483 76.77C83.2483 77.43 82.9483 78.37 82.9483 79.59V80.34L90.2683 80.31L90.0283 80.58Z" fill="white"/>
<defs>
<linearGradient id="paint0_linear" x1="-107" y1="-107" x2="120" y2="120" gradientUnits="userSpaceOnUse">
<stop offset="0.673579" stop-color="#C869A9"/>
<stop offset="0.8423" stop-color="#562E91"/>
</linearGradient>
</defs>
</svg>
