<svg width="22" height="22" viewBox="0 0 22 22" fill="none" xmlns="http://www.w3.org/2000/svg">
<path d="M21.1489 8.18466C20.853 6.72462 20.174 5.6312 18.7212 5.59903L16.8466 5.55753L16.7979 7.76011C16.7595 9.49406 15.2746 10.9147 13.5875 10.8773L8.57307 10.7663C7.21403 10.7362 6.06337 11.8829 6.03328 13.2419L5.92744 18.022C5.89735 19.381 7.0513 20.2037 8.35518 20.6076C9.93816 21.1115 11.4826 21.2395 13.3696 20.7187C14.6422 20.4186 15.8772 19.6958 15.9094 18.243L15.9519 16.3216L10.9844 16.2116L10.9979 15.6024L18.496 15.7684C19.9488 15.8006 20.534 14.782 21.0358 13.2928C21.6335 11.7119 21.6198 10.2112 21.1489 8.18466ZM13.7682 17.5392C14.2837 17.5506 14.6951 18.0286 14.6837 18.5441C14.6722 19.0596 14.2411 19.472 13.7256 19.4606C13.2101 19.4492 12.7977 19.0181 12.8091 18.5026C12.8216 17.9402 13.2527 17.5278 13.7682 17.5392ZM8.35224 10.1519L13.3666 10.2629C14.7725 10.294 15.9232 9.14734 15.9543 7.74144L16.0602 2.96136C16.0903 1.60232 14.9405 0.592244 13.5866 0.327836C11.9057 0.00930163 10.0781 -0.0311646 8.57221 0.216813C6.45505 0.54503 6.06251 1.33341 6.03138 2.73931L5.98884 4.66072L11.0032 4.77174L10.9887 5.42783L4.09977 5.2753C2.647 5.24314 1.36301 6.05867 0.903886 7.73641C0.392709 9.64744 0.366769 10.819 0.790788 12.8445C1.13353 14.3056 1.95321 15.4021 3.40598 15.4343L5.13993 15.4727L5.19077 13.1764C5.22709 11.5362 6.66516 10.1145 8.35224 10.1519ZM8.21944 3.44417C7.70394 3.43276 7.29151 3.00165 7.30292 2.48615C7.31537 1.92379 7.74648 1.51135 8.26198 1.52277C8.77748 1.53418 9.18991 1.96529 9.17746 2.52765C9.16605 3.04315 8.73494 3.45558 8.21944 3.44417Z" fill="#FFD749"/>
</svg>
