<svg width="21" height="24" viewBox="0 0 21 24" fill="none" xmlns="http://www.w3.org/2000/svg">
<path d="M21 3.46875C21 1.54688 16.2656 0 10.5 0C4.6875 0 0 1.54688 0 3.46875V5.57812C0 7.5 4.6875 9 10.5 9C16.2656 9 21 7.5 21 5.57812V3.46875ZM21 8.25C18.7031 9.84375 14.5781 10.5469 10.5 10.5469C6.375 10.5469 2.25 9.84375 0 8.25V13.0781C0 15 4.6875 16.5 10.5 16.5C16.2656 16.5 21 15 21 13.0781V8.25ZM21 15.75C18.7031 17.3438 14.5781 18.0469 10.5 18.0469C6.375 18.0469 2.25 17.3438 0 15.75V20.5781C0 22.5 4.6875 24 10.5 24C16.2656 24 21 22.5 21 20.5781V15.75Z" fill="#FFD749"/>
</svg>
